<svg width="74" height="20" viewBox="0 0 74 20" fill="none" xmlns="http://www.w3.org/2000/svg">
<path fill-rule="evenodd" clip-rule="evenodd" d="M34.6958 10.5879C34.6676 10.7431 34.5827 10.8513 34.4602 10.936C34.3329 11.0206 34.2245 11.063 34.1114 11.1053C33.8758 11.19 33.6213 11.2746 33.3574 11.3687C33.0935 11.4675 32.839 11.5663 32.6033 11.6321C32.3253 11.7309 32.0614 11.8155 31.821 11.9096C31.6419 11.9943 31.4581 12.0931 31.2932 12.2295C31.1518 12.3565 31.0293 12.507 30.9161 12.7045C30.803 12.8974 30.7512 13.1373 30.7512 13.4289C30.7512 14.0121 30.8926 14.4449 31.1706 14.7365C31.4487 15.014 31.9671 15.1692 32.7212 15.1692C33.4752 15.1692 34.0172 15.0187 34.3 14.7224C34.578 14.4167 34.7194 13.998 34.7194 13.443V10.5879H34.6958ZM32.7164 4.46846C34.069 4.46846 35.0634 4.73186 35.7044 5.26337C36.3312 5.79018 36.6517 6.4628 36.6517 7.25301V14.078C36.6517 14.3555 36.5951 14.666 36.4961 14.9858C36.3972 15.3198 36.2039 15.6255 35.9117 15.8936C35.6195 16.1711 35.2142 16.3969 34.71 16.5897C34.2057 16.7732 33.5365 16.8673 32.7306 16.8673C31.9247 16.8673 31.2508 16.7685 30.7512 16.5897C30.2469 16.411 29.8416 16.1711 29.5494 15.8936C29.2572 15.6161 29.0593 15.3104 28.965 14.9858C28.8661 14.6518 28.8095 14.3461 28.8095 14.078V12.9915C28.8095 12.4082 28.965 11.8767 29.2572 11.4016C29.5636 10.9266 29.983 10.5785 30.5391 10.3856C30.8172 10.2869 31.1282 10.1881 31.4864 10.0658C31.8351 9.93879 32.1839 9.83061 32.5185 9.70361C32.8531 9.59072 33.1312 9.48254 33.381 9.39787C33.6307 9.2991 33.7863 9.25677 33.8428 9.22854C33.8994 9.20032 33.9842 9.15799 34.0785 9.10155C34.1774 9.0451 34.2717 8.96044 34.3706 8.86636C34.4696 8.75348 34.5356 8.63118 34.6063 8.50418C34.677 8.36307 34.7053 8.19845 34.7053 8.015V7.58227C34.7053 7.42705 34.677 7.27653 34.6063 7.1072C34.5497 6.93787 34.4366 6.80147 34.2858 6.66036C34.135 6.51925 33.9229 6.41106 33.6731 6.3264C33.4234 6.24173 33.1029 6.1994 32.7117 6.1994C31.9435 6.1994 31.4298 6.34992 31.1471 6.67447C30.9114 6.95198 30.77 7.28594 30.7418 7.67634C30.7418 7.76101 30.6711 7.81745 30.5862 7.81745H28.9132C28.8284 7.81745 28.7577 7.7469 28.7577 7.66223V7.25772C28.7577 6.86732 28.8284 6.50514 28.9792 6.17118C29.1206 5.83722 29.3562 5.53148 29.6908 5.27748C30.0113 5.02819 30.4166 4.81653 30.9209 4.68012C31.4298 4.55312 32.0189 4.46846 32.7164 4.46846ZM5.93345 10.5879C5.90517 10.7431 5.82034 10.8513 5.69781 10.936C5.57056 11.0206 5.46217 11.063 5.34906 11.1053C5.11342 11.19 4.85892 11.2746 4.59501 11.3687C4.33109 11.4675 4.0766 11.5663 3.84095 11.6321C3.5629 11.7309 3.29427 11.8155 3.05862 11.9096C2.87482 11.9943 2.69574 12.0931 2.52608 12.2295C2.38469 12.3565 2.26216 12.507 2.14905 12.7045C2.03594 12.8974 1.97939 13.1373 1.97939 13.4289C1.97939 14.0121 2.12077 14.4449 2.39883 14.7365C2.67689 15.014 3.1953 15.1692 3.94935 15.1692C4.7034 15.1692 5.25009 15.0187 5.52815 14.7224C5.8062 14.4167 5.94759 13.998 5.94759 13.443V10.5879H5.93345ZM3.94935 4.46846C5.30193 4.46846 6.29634 4.73186 6.93728 5.26337C7.56409 5.79018 7.88456 6.4628 7.88456 7.25301V14.078C7.88456 14.3555 7.82801 14.666 7.72904 14.9858C7.63007 15.3198 7.43684 15.6255 7.14465 15.8936C6.85245 16.1711 6.44715 16.3969 5.94287 16.5897C5.4386 16.7732 4.76938 16.8673 3.96349 16.8673C3.15759 16.8673 2.48366 16.7685 1.97939 16.5897C1.47511 16.411 1.07452 16.1711 0.777617 15.8936C0.485421 15.6161 0.287482 15.3104 0.193226 14.9858C0.0942565 14.6518 0.0377026 14.3461 0.0377026 14.078V12.9915C0.0377026 12.4082 0.193226 11.8767 0.485421 11.4016C0.791755 10.9266 1.2112 10.5785 1.76731 10.3856C2.04537 10.2869 2.3517 10.1881 2.71459 10.0658C3.06334 9.93879 3.41209 9.83061 3.7467 9.70361C4.08131 9.59072 4.35936 9.48254 4.61386 9.39787C4.86364 9.2991 5.01916 9.25677 5.07571 9.22854C5.13227 9.20032 5.2171 9.15799 5.31136 9.10155C5.41033 9.0451 5.50458 8.96044 5.60355 8.86636C5.70252 8.75348 5.77321 8.63118 5.83919 8.50418C5.90989 8.36307 5.93816 8.19845 5.93816 8.015V7.58227C5.93816 7.42705 5.90989 7.27653 5.83919 7.1072C5.78264 6.93787 5.66953 6.80147 5.51872 6.66036C5.3632 6.51925 5.15583 6.41106 4.90605 6.3264C4.65627 6.24173 4.33109 6.1994 3.94464 6.1994C3.17645 6.1994 2.66275 6.34992 2.37998 6.67447C2.14434 6.95198 2.00295 7.28594 1.97467 7.67634C1.97467 7.76101 1.90398 7.81745 1.82386 7.81745H0.15081C0.0659796 7.81745 0 7.7469 0 7.66223V7.25772C0 6.86732 0.0706924 6.50514 0.221503 6.17118C0.362888 5.83722 0.598529 5.53148 0.93314 5.27748C1.25361 5.02819 1.65892 4.81653 2.16319 4.68012C2.65332 4.55312 3.25185 4.46846 3.94935 4.46846ZM26.7689 4.46846H27.8858C27.9848 4.46846 28.0555 4.56723 28.0272 4.66601L27.6502 6.11473C27.636 6.18529 27.5653 6.22762 27.5088 6.22762H26.7264C26.307 6.22762 25.9724 6.28406 25.7085 6.39695C25.4587 6.50984 25.2466 6.63213 25.1099 6.78735C24.9686 6.93787 24.8884 7.09309 24.846 7.24831C24.8036 7.41764 24.7895 7.56816 24.7895 7.70927V16.7591C24.7895 16.8437 24.7188 16.9143 24.6339 16.9143H22.9609C22.8761 16.9143 22.8054 16.8437 22.8054 16.7591V7.31416C22.8054 7.14483 22.8336 6.89554 22.9043 6.57569C22.9609 6.25584 23.1258 5.95011 23.3945 5.63026C23.6584 5.32452 24.0496 5.04701 24.5821 4.82123C25.0958 4.58135 25.8357 4.46846 26.7689 4.46846ZM21.1182 13.65V14.0686C21.1182 14.2473 21.0899 14.5013 21.0192 14.8212C20.9627 15.1269 20.7977 15.4468 20.5291 15.7525C20.2652 16.0582 19.874 16.3357 19.3414 16.5615C18.8136 16.7826 18.0831 16.8955 17.15 16.8955C16.2168 16.8955 15.4911 16.7826 14.9585 16.5615C14.426 16.3404 14.0395 16.0723 13.7709 15.7525C13.507 15.4468 13.3373 15.1269 13.2807 14.8071C13.2242 14.4872 13.1818 14.2473 13.1818 14.0686V4.62368C13.1818 4.53901 13.2525 4.46846 13.3326 4.46846H14.9915C15.0763 4.46846 15.147 4.53901 15.147 4.62368V13.4665C15.147 13.7581 15.1894 13.9698 15.2319 14.1344C15.2743 14.3038 15.3591 14.4684 15.4816 14.6095C15.6089 14.76 15.8021 14.887 16.066 14.9858C16.3158 15.0846 16.6646 15.141 17.0981 15.141C17.5317 15.141 17.9087 15.0846 18.1727 14.9858C18.4366 14.887 18.6345 14.7647 18.7712 14.6236C18.9079 14.4825 19.0068 14.332 19.0492 14.1627C19.0917 13.9933 19.1482 13.8569 19.1482 13.4524V4.62368C19.1482 4.53901 19.2189 4.46846 19.299 4.46846H20.9579C21.0428 4.46846 21.1135 4.53901 21.1135 4.62368V13.65H21.1182ZM9.699 0H11.3579C11.4427 0 11.5087 0.0705546 11.5087 0.15522V16.745C11.5087 16.8296 11.438 16.9002 11.3579 16.9002H9.699C9.61417 16.9002 9.54348 16.8296 9.54348 16.745V0.150517C9.54819 0.0705546 9.61888 0 9.699 0Z" fill="#384652"/>
<path fill-rule="evenodd" clip-rule="evenodd" d="M44.5463 7.6727V7.48926C44.5463 6.7696 44.4379 6.28983 44.2259 6.05465C44.0091 5.81946 43.5472 5.70187 42.8403 5.70187H41.3181C40.6111 5.70187 40.1446 5.81946 39.9325 6.05465C39.7157 6.28983 39.6073 6.7649 39.6073 7.48926V8.43939C39.6073 9.15905 39.7157 9.62941 39.9325 9.85048C40.1493 10.0716 40.6111 10.1844 41.3181 10.1844H42.8403C43.8913 10.1844 44.6312 10.3914 45.0553 10.81C45.4795 11.2287 45.6916 11.953 45.6916 12.9925V13.9427C45.6916 14.9822 45.4795 15.7112 45.0553 16.144C44.6312 16.5767 43.8913 16.7884 42.8403 16.7884H41.3181C40.2671 16.7884 39.5272 16.572 39.103 16.144C38.6789 15.7159 38.4668 14.9822 38.4668 13.9427V13.7592H39.6073V13.9427C39.6073 14.6623 39.7157 15.1421 39.9325 15.3726C40.1493 15.6077 40.6111 15.7253 41.3181 15.7253H42.8403C43.5519 15.7253 44.0138 15.6077 44.2259 15.3726C44.4427 15.1374 44.5463 14.6623 44.5463 13.9427V12.9925C44.5463 12.2729 44.4379 11.8025 44.2259 11.5814C44.0091 11.3604 43.5472 11.2475 42.8403 11.2475H41.3181C40.2671 11.2475 39.5272 11.0405 39.103 10.6219C38.6789 10.2033 38.4668 9.4789 38.4668 8.43939V7.48926C38.4668 6.45446 38.6789 5.72069 39.103 5.28795C39.5272 4.85992 40.2671 4.64355 41.3181 4.64355H42.8403C43.8913 4.64355 44.6312 4.85992 45.0553 5.28795C45.4795 5.71599 45.6916 6.44975 45.6916 7.48926V7.6727H44.5463Z" fill="#F6543B"/>
<path fill-rule="evenodd" clip-rule="evenodd" d="M52.4438 15.7155V16.7785H49.9743C48.9233 16.7785 48.1834 16.5621 47.7593 16.1341C47.3351 15.706 47.123 14.9723 47.123 13.9328V2.36182H48.2635V4.63838H52.2553V5.7014H48.2635V13.9328C48.2635 14.6524 48.3719 15.1322 48.5887 15.3627C48.8055 15.5979 49.2674 15.7155 49.9743 15.7155H52.4438Z" fill="#FAC900"/>
<path fill-rule="evenodd" clip-rule="evenodd" d="M59.4142 11.2436H56.1812C55.4743 11.2436 55.0124 11.3517 54.7956 11.5775C54.5789 11.7986 54.4705 12.269 54.4705 12.9886V13.9387C54.4705 14.6584 54.5789 15.1382 54.7956 15.3687C55.0124 15.6038 55.4743 15.7214 56.1812 15.7214H57.7035C58.4151 15.7214 58.877 15.6038 59.089 15.3687C59.3058 15.1335 59.4095 14.6584 59.4095 13.9387V11.2436H59.4142ZM59.9185 5.28875C60.3426 5.71678 60.5547 6.45055 60.5547 7.49005V13.9387C60.5547 14.9735 60.3426 15.7073 59.9185 16.1401C59.4943 16.5728 58.7544 16.7844 57.7035 16.7844H56.1812C55.1303 16.7844 54.3903 16.5681 53.9662 16.1401C53.542 15.712 53.33 14.9783 53.33 13.9387V12.9886C53.33 11.9538 53.542 11.2247 53.9662 10.8061C54.3903 10.3875 55.1303 10.1805 56.1812 10.1805H59.4142V7.48535C59.4142 6.76569 59.3058 6.28592 59.0937 6.05074C58.877 5.81556 58.4151 5.69797 57.7082 5.69797H56.1859C55.479 5.69797 55.0172 5.81556 54.8004 6.05074C54.5836 6.28592 54.4752 6.76099 54.4752 7.48535V7.66879H53.3347V7.48535C53.3347 6.44585 53.5467 5.71678 53.9709 5.28405C54.3951 4.85602 55.135 4.63965 56.1859 4.63965H57.7082C58.7544 4.63965 59.4896 4.85602 59.9185 5.28875Z" fill="#4EBFE9"/>
<path fill-rule="evenodd" clip-rule="evenodd" d="M67.2622 5.70267H64.7927C64.0857 5.70267 63.6192 5.82026 63.4071 6.05544C63.1903 6.29063 63.0819 6.76569 63.0819 7.49005V16.7844H61.9414V7.48535C61.9414 6.44585 62.1535 5.71678 62.5776 5.28405C63.0018 4.85602 63.7417 4.63965 64.7927 4.63965H67.2622V5.70267Z" fill="#C75EEB"/>
<path fill-rule="evenodd" clip-rule="evenodd" d="M74.0005 15.7198V16.7829H71.5309C70.48 16.7829 69.7401 16.5665 69.3159 16.1385C68.8918 15.7104 68.6797 14.9767 68.6797 13.9372V2.36621H69.8202V4.64277H73.812V5.7058H69.8202V13.9372C69.8202 14.6568 69.9286 15.1366 70.1454 15.3671C70.3622 15.6023 70.824 15.7198 71.5309 15.7198H74.0005Z" fill="#61E061"/>
</svg>
