<svg width="201" height="47" viewBox="0 0 201 47" fill="none" xmlns="http://www.w3.org/2000/svg">
<path fill-rule="evenodd" clip-rule="evenodd" d="M94.043 29.5655C93.9664 29.9877 93.7365 30.2819 93.4043 30.5121C93.0594 30.7424 92.7656 30.8575 92.459 30.9726C91.8203 31.2029 91.1305 31.4332 90.4152 31.689C89.6998 31.9576 89.01 32.2263 88.3713 32.4053C87.6176 32.674 86.9023 32.9042 86.2508 33.1601C85.7654 33.3903 85.2672 33.659 84.8201 34.0299C84.4369 34.3753 84.1048 34.7847 83.7982 35.3219C83.4916 35.8464 83.3511 36.4988 83.3511 37.2919C83.3511 38.8781 83.7343 40.055 84.488 40.8481C85.2417 41.6028 86.6468 42.0249 88.6907 42.0249C90.7345 42.0249 92.2036 41.6156 92.97 40.8097C93.7237 39.9782 94.1069 38.8397 94.1069 37.3303V29.5655H94.043ZM88.6779 12.9231C92.3441 12.9231 95.0394 13.6395 96.7767 15.085C98.4756 16.5177 99.3443 18.3469 99.3443 20.496V39.0572C99.3443 39.8119 99.191 40.6562 98.9227 41.526C98.6545 42.4343 98.1307 43.2657 97.3388 43.9949C96.5468 44.7496 95.4482 45.3636 94.0814 45.8881C92.7145 46.387 90.9006 46.6428 88.7162 46.6428C86.5319 46.6428 84.7052 46.3742 83.3511 45.8881C81.9843 45.402 80.8857 44.7496 80.0937 43.9949C79.3017 43.2402 78.7652 42.4087 78.5097 41.526C78.2414 40.6178 78.0882 39.7863 78.0882 39.0572V36.1022C78.0882 34.516 78.5097 33.0705 79.3017 31.7785C80.132 30.4865 81.2689 29.5399 82.7763 29.0155C83.5299 28.7468 84.373 28.4782 85.3439 28.1456C86.2891 27.8002 87.2344 27.506 88.1414 27.1606C89.0483 26.8536 89.802 26.5594 90.479 26.3292C91.1561 26.0605 91.5776 25.9454 91.7309 25.8686C91.8842 25.7919 92.1141 25.6768 92.3696 25.5233C92.6379 25.3698 92.8934 25.1395 93.1616 24.8837C93.4299 24.5766 93.6087 24.2441 93.8003 23.8987C93.9919 23.5149 94.0686 23.0672 94.0686 22.5683V21.3914C94.0686 20.9693 93.9919 20.56 93.8003 20.0995C93.647 19.6389 93.3405 19.268 92.9317 18.8842C92.5229 18.5005 91.9481 18.2062 91.271 17.976C90.594 17.7457 89.7254 17.6306 88.6651 17.6306C86.5829 17.6306 85.1906 18.0399 84.4241 18.9226C83.7854 19.6773 83.4022 20.5855 83.3255 21.6473C83.3255 21.8775 83.1339 22.031 82.904 22.031H78.3692C78.1393 22.031 77.9476 21.8392 77.9476 21.6089V20.5088C77.9476 19.4471 78.1393 18.4621 78.548 17.5538C78.9313 16.6456 79.57 15.8141 80.4769 15.1234C81.3456 14.4454 82.4441 13.8698 83.811 13.4988C85.1906 13.1534 86.7873 12.9231 88.6779 12.9231ZM16.0826 29.5655C16.006 29.9877 15.776 30.2819 15.4439 30.5121C15.099 30.7424 14.8052 30.8575 14.4986 30.9726C13.8599 31.2029 13.1701 31.4332 12.4548 31.689C11.7394 31.9576 11.0496 32.2263 10.4109 32.4053C9.65723 32.674 8.92911 32.9042 8.2904 33.1601C7.79221 33.3903 7.30679 33.659 6.84693 34.0299C6.4637 34.3753 6.13157 34.7847 5.825 35.3219C5.51842 35.8464 5.36513 36.4988 5.36513 37.2919C5.36513 38.8781 5.74835 40.055 6.50202 40.8481C7.2557 41.6028 8.66085 42.0249 10.7047 42.0249C12.7486 42.0249 14.2304 41.6156 14.984 40.8097C15.7377 39.9782 16.1209 38.8397 16.1209 37.3303V29.5655H16.0826ZM10.7047 12.9231C14.3709 12.9231 17.0662 13.6395 18.8035 15.085C20.5025 16.5177 21.3711 18.3469 21.3711 20.496V39.0572C21.3711 39.8119 21.2178 40.6562 20.9495 41.526C20.6813 42.4343 20.1576 43.2657 19.3656 43.9949C18.5736 44.7496 17.475 45.3636 16.1082 45.8881C14.7413 46.387 12.9274 46.6428 10.743 46.6428C8.55866 46.6428 6.73196 46.3742 5.36513 45.8881C3.9983 45.402 2.9125 44.7496 2.10773 43.9949C1.31573 43.2402 0.779221 42.4087 0.523739 41.526C0.255482 40.6178 0.102193 39.7863 0.102193 39.0572V36.1022C0.102193 34.516 0.523739 33.0705 1.31573 31.7785C2.14605 30.4865 3.28295 29.5399 4.79029 29.0155C5.54397 28.7468 6.37428 28.4782 7.35789 28.1456C8.30317 27.8002 9.24846 27.506 10.1554 27.1606C11.0624 26.8536 11.8161 26.5594 12.5059 26.3292C13.1829 26.0605 13.6044 25.9454 13.7577 25.8686C13.911 25.7919 14.1409 25.6768 14.3964 25.5233C14.6647 25.3698 14.9202 25.1395 15.1884 24.8837C15.4567 24.5766 15.6483 24.2441 15.8271 23.8987C16.0187 23.5149 16.0954 23.0672 16.0954 22.5683V21.3914C16.0954 20.9693 16.0187 20.56 15.8271 20.0995C15.6738 19.6389 15.3673 19.268 14.9585 18.8842C14.5369 18.5005 13.9749 18.2062 13.2979 17.976C12.6208 17.7457 11.7394 17.6306 10.6919 17.6306C8.60975 17.6306 7.21737 18.0399 6.45093 18.9226C5.81222 19.6773 5.429 20.5855 5.35235 21.6473C5.35235 21.8775 5.16074 22.031 4.94358 22.031H0.408772C0.178838 22.031 0 21.8392 0 21.6089V20.5088C0 19.4471 0.191612 18.4621 0.600383 17.5538C0.983607 16.6456 1.62231 15.8141 2.52927 15.1234C3.39791 14.4454 4.49649 13.8698 5.86332 13.4988C7.19183 13.1534 8.81414 12.9231 10.7047 12.9231ZM72.557 12.9231H75.5844C75.8527 12.9231 76.0443 13.1918 75.9677 13.4604L74.9457 17.4003C74.9074 17.5922 74.7158 17.7073 74.5625 17.7073H72.442C71.3051 17.7073 70.3981 17.8609 69.6828 18.1679C69.0058 18.4749 68.4309 18.8075 68.0605 19.2296C67.6773 19.6389 67.4601 20.0611 67.3451 20.4832C67.2302 20.9437 67.1918 21.3531 67.1918 21.7368V46.3486C67.1918 46.5789 67.0002 46.7708 66.7703 46.7708H62.2355C62.0056 46.7708 61.8139 46.5789 61.8139 46.3486V20.6623C61.8139 20.2018 61.8906 19.5238 62.0822 18.654C62.2355 17.7841 62.6826 16.9526 63.4107 16.0828C64.1261 15.2513 65.1863 14.4966 66.6298 13.8825C68.0222 13.2302 70.0277 12.9231 72.557 12.9231ZM57.2408 37.8931V39.0316C57.2408 39.5177 57.1642 40.2085 56.9725 41.0783C56.8193 41.9098 56.3722 42.7797 55.644 43.6111C54.9287 44.4426 53.8684 45.1973 52.425 45.8114C50.9943 46.4126 49.0143 46.7196 46.485 46.7196C43.9557 46.7196 41.9885 46.4126 40.545 45.8114C39.1016 45.2101 38.0541 44.481 37.326 43.6111C36.6106 42.7797 36.1507 41.9098 35.9975 41.0399C35.8442 40.1701 35.7292 39.5177 35.7292 39.0316V13.3453C35.7292 13.115 35.9208 12.9231 36.138 12.9231H40.6345C40.8644 12.9231 41.056 13.115 41.056 13.3453V37.3942C41.056 38.1873 41.171 38.763 41.2859 39.2107C41.4009 39.6712 41.6308 40.1189 41.963 40.5027C42.3079 40.912 42.8316 41.2574 43.547 41.526C44.224 41.7947 45.1693 41.9482 46.3445 41.9482C47.5197 41.9482 48.5416 41.7947 49.257 41.526C49.9723 41.2574 50.5088 40.9248 50.8793 40.5411C51.2497 40.1573 51.518 39.748 51.633 39.2874C51.7479 38.8269 51.9012 38.456 51.9012 37.3558V13.3453C51.9012 13.115 52.0928 12.9231 52.31 12.9231H56.8065C57.0364 12.9231 57.228 13.115 57.228 13.3453V37.8931H57.2408ZM26.2891 0.770752H30.7856C31.0155 0.770752 31.1944 0.962632 31.1944 1.19289V46.3102C31.1944 46.5405 31.0028 46.7324 30.7856 46.7324H26.2891C26.0592 46.7324 25.8676 46.5405 25.8676 46.3102V1.1801C25.8804 0.962632 26.072 0.770752 26.2891 0.770752Z" fill="white"/>
<path fill-rule="evenodd" clip-rule="evenodd" d="M120.742 21.6349V21.136C120.742 19.1789 120.448 17.8741 119.873 17.2345C119.285 16.5949 118.034 16.2751 116.117 16.2751H111.991C110.075 16.2751 108.811 16.5949 108.236 17.2345C107.648 17.8741 107.354 19.1661 107.354 21.136V23.72C107.354 25.6772 107.648 26.9564 108.236 27.5576C108.823 28.1588 110.075 28.4658 111.991 28.4658H116.117C118.966 28.4658 120.972 29.0287 122.121 30.1672C123.271 31.3057 123.846 33.2756 123.846 36.1027V38.6866C123.846 41.5137 123.271 43.4964 122.121 44.6733C120.972 45.8502 118.966 46.4258 116.117 46.4258H111.991C109.143 46.4258 107.137 45.8374 105.988 44.6733C104.838 43.5092 104.263 41.5137 104.263 38.6866V38.1878H107.354V38.6866C107.354 40.6438 107.648 41.9486 108.236 42.5754C108.823 43.215 110.075 43.5348 111.991 43.5348H116.117C118.046 43.5348 119.298 43.215 119.873 42.5754C120.461 41.9358 120.742 40.6438 120.742 38.6866V36.1027C120.742 34.1455 120.448 32.8663 119.873 32.2651C119.285 31.6638 118.034 31.3568 116.117 31.3568H111.991C109.143 31.3568 107.137 30.794 105.988 29.6555C104.838 28.517 104.263 26.547 104.263 23.72V21.136C104.263 18.3218 104.838 16.3262 105.988 15.1494C107.137 13.9853 109.143 13.3969 111.991 13.3969H116.117C118.966 13.3969 120.972 13.9853 122.121 15.1494C123.271 16.3135 123.846 18.309 123.846 21.136V21.6349H120.742Z" fill="white"/>
<path fill-rule="evenodd" clip-rule="evenodd" d="M142.152 43.5081V46.3991H135.458C132.61 46.3991 130.604 45.8107 129.454 44.6466C128.305 43.4825 127.73 41.487 127.73 38.6599V7.19165H130.821V13.383H141.641V16.274H130.821V38.6599C130.821 40.6171 131.115 41.9219 131.703 42.5487C132.29 43.1883 133.542 43.5081 135.458 43.5081H142.152Z" fill="white"/>
<path fill-rule="evenodd" clip-rule="evenodd" d="M161.043 31.3432H152.28C150.364 31.3432 149.112 31.6374 148.525 32.2514C147.937 32.8527 147.643 34.1318 147.643 36.089V38.673C147.643 40.6302 147.937 41.935 148.525 42.5618C149.112 43.2014 150.364 43.5212 152.28 43.5212H156.406C158.335 43.5212 159.587 43.2014 160.162 42.5618C160.75 41.9222 161.031 40.6302 161.031 38.673V31.3432H161.043ZM162.41 15.1485C163.56 16.3126 164.135 18.3082 164.135 21.1352V38.673C164.135 41.4872 163.56 43.4828 162.41 44.6597C161.261 45.8365 159.255 46.4122 156.406 46.4122H152.28C149.432 46.4122 147.426 45.8237 146.277 44.6597C145.127 43.4956 144.552 41.5 144.552 38.673V36.089C144.552 33.2748 145.127 31.292 146.277 30.1535C147.426 29.0151 149.432 28.4522 152.28 28.4522H161.043V21.1224C161.043 19.1652 160.75 17.8604 160.175 17.2208C159.587 16.5812 158.335 16.2614 156.419 16.2614H152.293C150.377 16.2614 149.125 16.5812 148.538 17.2208C147.95 17.8604 147.656 19.1524 147.656 21.1224V21.6213H144.565V21.1224C144.565 18.2954 145.14 16.3126 146.289 15.1357C147.439 13.9717 149.445 13.3832 152.293 13.3832H156.419C159.255 13.3832 161.248 13.9717 162.41 15.1485Z" fill="white"/>
<path fill-rule="evenodd" clip-rule="evenodd" d="M182.313 16.2742H175.619C173.703 16.2742 172.438 16.594 171.863 17.2336C171.276 17.8732 170.982 19.1652 170.982 21.1352V46.4122H167.891V21.1224C167.891 18.2954 168.465 16.3126 169.615 15.1357C170.765 13.9717 172.77 13.3832 175.619 13.3832H182.313V16.2742Z" fill="white"/>
<path fill-rule="evenodd" clip-rule="evenodd" d="M200.576 43.5163V46.4073H193.882C191.034 46.4073 189.028 45.8188 187.879 44.6548C186.729 43.4907 186.154 41.4952 186.154 38.6681V7.19983H189.245V13.3912H200.065V16.2821H189.245V38.6681C189.245 40.6253 189.539 41.9301 190.127 42.5569C190.714 43.1965 191.966 43.5163 193.882 43.5163H200.576Z" fill="white"/>
</svg>
