<svg width="74" height="18" viewBox="0 0 74 18" fill="none" xmlns="http://www.w3.org/2000/svg">
<path fill-rule="evenodd" clip-rule="evenodd" d="M34.6958 11.1309C34.6676 11.2861 34.5827 11.3943 34.4602 11.4789C34.3329 11.5636 34.2246 11.6059 34.1114 11.6483C33.8758 11.7329 33.6213 11.8176 33.3574 11.9117C33.0935 12.0104 32.839 12.1092 32.6033 12.1751C32.3253 12.2738 32.0614 12.3585 31.821 12.4526C31.6419 12.5373 31.4581 12.636 31.2932 12.7724C31.1518 12.8994 31.0293 13.05 30.9161 13.2475C30.803 13.4404 30.7512 13.6802 30.7512 13.9719C30.7512 14.5551 30.8926 14.9878 31.1706 15.2795C31.4487 15.557 31.9671 15.7122 32.7212 15.7122C33.4752 15.7122 34.0172 15.5617 34.3 15.2654C34.578 14.9596 34.7194 14.541 34.7194 13.986V11.1309H34.6958ZM32.7164 5.01143C34.069 5.01143 35.0634 5.27483 35.7044 5.80634C36.3312 6.33315 36.6517 7.00577 36.6517 7.79598V14.621C36.6517 14.8985 36.5951 15.2089 36.4961 15.5288C36.3972 15.8627 36.2039 16.1685 35.9117 16.4366C35.6195 16.7141 35.2142 16.9399 34.71 17.1327C34.2057 17.3162 33.5365 17.4102 32.7306 17.4102C31.9247 17.4102 31.2508 17.3114 30.7512 17.1327C30.2469 16.954 29.8416 16.7141 29.5494 16.4366C29.2572 16.1591 29.0593 15.8533 28.965 15.5288C28.8661 15.1948 28.8095 14.8891 28.8095 14.621V13.5344C28.8095 12.9512 28.965 12.4197 29.2572 11.9446C29.5636 11.4695 29.983 11.1215 30.5391 10.9286C30.8172 10.8298 31.1282 10.7311 31.4864 10.6088C31.8351 10.4818 32.1839 10.3736 32.5185 10.2466C32.8531 10.1337 33.1312 10.0255 33.381 9.94084C33.6307 9.84207 33.7863 9.79973 33.8428 9.77151C33.8994 9.74329 33.9842 9.70096 34.0785 9.64451C34.1774 9.58807 34.2717 9.5034 34.3706 9.40933C34.4696 9.29644 34.5356 9.17415 34.6063 9.04715C34.677 8.90604 34.7053 8.74141 34.7053 8.55797V8.12524C34.7053 7.97002 34.677 7.8195 34.6063 7.65017C34.5497 7.48084 34.4366 7.34443 34.2858 7.20332C34.135 7.06222 33.9229 6.95403 33.6731 6.86937C33.4234 6.7847 33.1029 6.74237 32.7117 6.74237C31.9435 6.74237 31.4298 6.89288 31.1471 7.21743C30.9114 7.49495 30.77 7.82891 30.7418 8.21931C30.7418 8.30398 30.6711 8.36042 30.5862 8.36042H28.9132C28.8284 8.36042 28.7577 8.28987 28.7577 8.2052V7.80069C28.7577 7.41028 28.8284 7.0481 28.9792 6.71415C29.1206 6.38019 29.3562 6.07445 29.6908 5.82045C30.0113 5.57116 30.4166 5.3595 30.9209 5.22309C31.4298 5.09609 32.0189 5.01143 32.7164 5.01143ZM5.93345 11.1309C5.90517 11.2861 5.82034 11.3943 5.69781 11.4789C5.57056 11.5636 5.46217 11.6059 5.34906 11.6483C5.11342 11.7329 4.85892 11.8176 4.59501 11.9117C4.33109 12.0104 4.0766 12.1092 3.84095 12.1751C3.5629 12.2738 3.29427 12.3585 3.05862 12.4526C2.87482 12.5373 2.69574 12.636 2.52608 12.7724C2.38469 12.8994 2.26216 13.05 2.14905 13.2475C2.03594 13.4404 1.97939 13.6802 1.97939 13.9719C1.97939 14.5551 2.12077 14.9878 2.39883 15.2795C2.67689 15.557 3.1953 15.7122 3.94935 15.7122C4.7034 15.7122 5.25009 15.5617 5.52815 15.2654C5.8062 14.9596 5.94759 14.541 5.94759 13.986V11.1309H5.93345ZM3.94935 5.01143C5.30193 5.01143 6.29634 5.27483 6.93728 5.80634C7.56409 6.33315 7.88456 7.00577 7.88456 7.79598V14.621C7.88456 14.8985 7.82801 15.2089 7.72904 15.5288C7.63007 15.8627 7.43684 16.1685 7.14465 16.4366C6.85245 16.7141 6.44715 16.9399 5.94287 17.1327C5.4386 17.3162 4.76938 17.4102 3.96349 17.4102C3.15759 17.4102 2.48366 17.3114 1.97939 17.1327C1.47511 16.954 1.07452 16.7141 0.777616 16.4366C0.485421 16.1591 0.287482 15.8533 0.193226 15.5288C0.0942565 15.1948 0.0377026 14.8891 0.0377026 14.621V13.5344C0.0377026 12.9512 0.193226 12.4197 0.485421 11.9446C0.791755 11.4695 1.2112 11.1215 1.76731 10.9286C2.04537 10.8298 2.3517 10.7311 2.71459 10.6088C3.06334 10.4818 3.41209 10.3736 3.7467 10.2466C4.08131 10.1337 4.35937 10.0255 4.61386 9.94084C4.86364 9.84207 5.01916 9.79973 5.07571 9.77151C5.13227 9.74329 5.2171 9.70096 5.31136 9.64451C5.41033 9.58807 5.50458 9.5034 5.60355 9.40933C5.70252 9.29644 5.77321 9.17415 5.83919 9.04715C5.90989 8.90604 5.93816 8.74141 5.93816 8.55797V8.12524C5.93816 7.97002 5.90989 7.8195 5.83919 7.65017C5.78264 7.48084 5.66953 7.34443 5.51872 7.20332C5.3632 7.06222 5.15583 6.95403 4.90605 6.86937C4.65627 6.7847 4.33109 6.74237 3.94464 6.74237C3.17645 6.74237 2.66275 6.89288 2.37998 7.21743C2.14434 7.49495 2.00295 7.82891 1.97467 8.21931C1.97467 8.30398 1.90398 8.36042 1.82386 8.36042H0.15081C0.0659796 8.36042 0 8.28987 0 8.2052V7.80069C0 7.41028 0.0706924 7.0481 0.221503 6.71415C0.362888 6.38019 0.598529 6.07445 0.93314 5.82045C1.25361 5.57116 1.65892 5.3595 2.16319 5.22309C2.65332 5.09609 3.25185 5.01143 3.94935 5.01143ZM26.7689 5.01143H27.8858C27.9848 5.01143 28.0555 5.1102 28.0272 5.20898L27.6502 6.6577C27.636 6.72826 27.5653 6.77059 27.5088 6.77059H26.7264C26.307 6.77059 25.9724 6.82703 25.7085 6.93992C25.4587 7.05281 25.2466 7.1751 25.1099 7.33032C24.9686 7.48084 24.8884 7.63606 24.846 7.79128C24.8036 7.96061 24.7895 8.11113 24.7895 8.25224V17.302C24.7895 17.3867 24.7188 17.4573 24.6339 17.4573H22.9609C22.8761 17.4573 22.8054 17.3867 22.8054 17.302V7.85713C22.8054 7.6878 22.8336 7.43851 22.9043 7.11866C22.9609 6.79881 23.1258 6.49307 23.3945 6.17323C23.6584 5.86749 24.0496 5.58998 24.5821 5.3642C25.0958 5.12432 25.8357 5.01143 26.7689 5.01143ZM21.1182 14.1929V14.6116C21.1182 14.7903 21.0899 15.0443 21.0192 15.3641C20.9627 15.6699 20.7977 15.9897 20.5291 16.2955C20.2652 16.6012 19.874 16.8787 19.3414 17.1045C18.8136 17.3256 18.0831 17.4384 17.15 17.4384C16.2168 17.4384 15.4911 17.3256 14.9585 17.1045C14.426 16.8834 14.0395 16.6153 13.7709 16.2955C13.507 15.9897 13.3373 15.6699 13.2807 15.35C13.2242 15.0302 13.1818 14.7903 13.1818 14.6116V5.16665C13.1818 5.08198 13.2525 5.01143 13.3326 5.01143H14.9915C15.0763 5.01143 15.147 5.08198 15.147 5.16665V14.0095C15.147 14.3011 15.1894 14.5128 15.2319 14.6774C15.2743 14.8467 15.3591 15.0114 15.4816 15.1525C15.6089 15.303 15.8021 15.43 16.066 15.5288C16.3158 15.6275 16.6646 15.684 17.0981 15.684C17.5317 15.684 17.9087 15.6275 18.1727 15.5288C18.4366 15.43 18.6345 15.3077 18.7712 15.1666C18.9079 15.0255 19.0068 14.875 19.0492 14.7056C19.0917 14.5363 19.1482 14.3999 19.1482 13.9954V5.16665C19.1482 5.08198 19.2189 5.01143 19.299 5.01143H20.9579C21.0428 5.01143 21.1135 5.08198 21.1135 5.16665V14.1929H21.1182ZM9.699 0.542969H11.3579C11.4427 0.542969 11.5087 0.613523 11.5087 0.698189V17.2879C11.5087 17.3726 11.438 17.4432 11.3579 17.4432H9.699C9.61417 17.4432 9.54347 17.3726 9.54347 17.2879V0.693485C9.54819 0.613523 9.61888 0.542969 9.699 0.542969Z" fill="#384652"/>
<path fill-rule="evenodd" clip-rule="evenodd" d="M44.5463 8.21567V8.03223C44.5463 7.31257 44.4379 6.8328 44.2259 6.59762C44.0091 6.36243 43.5472 6.24484 42.8403 6.24484H41.3181C40.6111 6.24484 40.1446 6.36243 39.9325 6.59762C39.7157 6.8328 39.6073 7.30787 39.6073 8.03223V8.98236C39.6073 9.70202 39.7157 10.1724 39.9325 10.3935C40.1493 10.6145 40.6111 10.7274 41.3181 10.7274H42.8403C43.8913 10.7274 44.6312 10.9344 45.0553 11.353C45.4795 11.7716 45.6916 12.496 45.6916 13.5355V14.4856C45.6916 15.5251 45.4795 16.2542 45.0553 16.6869C44.6312 17.1197 43.8913 17.3313 42.8403 17.3313H41.3181C40.2671 17.3313 39.5272 17.115 39.103 16.6869C38.6789 16.2589 38.4668 15.5251 38.4668 14.4856V14.3022H39.6073V14.4856C39.6073 15.2053 39.7157 15.685 39.9325 15.9155C40.1493 16.1507 40.6111 16.2683 41.3181 16.2683H42.8403C43.5519 16.2683 44.0138 16.1507 44.2259 15.9155C44.4427 15.6803 44.5463 15.2053 44.5463 14.4856V13.5355C44.5463 12.8158 44.4379 12.3455 44.2259 12.1244C44.0091 11.9033 43.5472 11.7904 42.8403 11.7904H41.3181C40.2671 11.7904 39.5272 11.5835 39.103 11.1649C38.6789 10.7462 38.4668 10.0219 38.4668 8.98236V8.03223C38.4668 6.99743 38.6789 6.26366 39.103 5.83092C39.5272 5.40289 40.2671 5.18652 41.3181 5.18652H42.8403C43.8913 5.18652 44.6312 5.40289 45.0553 5.83092C45.4795 6.25895 45.6916 6.99272 45.6916 8.03223V8.21567H44.5463Z" fill="#F6543B"/>
<path fill-rule="evenodd" clip-rule="evenodd" d="M52.4438 16.2584V17.3214H49.9743C48.9233 17.3214 48.1834 17.1051 47.7593 16.677C47.3351 16.249 47.123 15.5152 47.123 14.4757V2.90479H48.2635V5.18135H52.2553V6.24437H48.2635V14.4757C48.2635 15.1954 48.3719 15.6752 48.5887 15.9056C48.8055 16.1408 49.2674 16.2584 49.9743 16.2584H52.4438Z" fill="#FAC900"/>
<path fill-rule="evenodd" clip-rule="evenodd" d="M59.4143 11.7865H56.1813C55.4744 11.7865 55.0126 11.8947 54.7958 12.1205C54.579 12.3416 54.4706 12.8119 54.4706 13.5316V14.4817C54.4706 15.2014 54.579 15.6811 54.7958 15.9116C55.0126 16.1468 55.4744 16.2644 56.1813 16.2644H57.7036C58.4152 16.2644 58.8771 16.1468 59.0892 15.9116C59.3059 15.6764 59.4096 15.2014 59.4096 14.4817V11.7865H59.4143ZM59.9186 5.83172C60.3428 6.25975 60.5548 6.99352 60.5548 8.03302V14.4817C60.5548 15.5165 60.3428 16.2503 59.9186 16.683C59.4945 17.1158 58.7545 17.3274 57.7036 17.3274H56.1813C55.1304 17.3274 54.3905 17.1111 53.9663 16.683C53.5422 16.255 53.3301 15.5212 53.3301 14.4817V13.5316C53.3301 12.4968 53.5422 11.7677 53.9663 11.3491C54.3905 10.9305 55.1304 10.7235 56.1813 10.7235H59.4143V8.02832C59.4143 7.30866 59.3059 6.82889 59.0939 6.59371C58.8771 6.35853 58.4152 6.24094 57.7083 6.24094H56.1861C55.4791 6.24094 55.0173 6.35853 54.8005 6.59371C54.5837 6.82889 54.4753 7.30396 54.4753 8.02832V8.21176H53.3348V8.02832C53.3348 6.98882 53.5469 6.25975 53.971 5.82702C54.3952 5.39898 55.1351 5.18262 56.1861 5.18262H57.7083C58.7545 5.18262 59.4897 5.39898 59.9186 5.83172Z" fill="#4EBFE9"/>
<path fill-rule="evenodd" clip-rule="evenodd" d="M67.2622 6.24564H64.7927C64.0857 6.24564 63.6192 6.36323 63.4071 6.59841C63.1903 6.8336 63.0819 7.30866 63.0819 8.03302V17.3274H61.9414V8.02832C61.9414 6.98882 62.1535 6.25975 62.5776 5.82702C63.0018 5.39898 63.7417 5.18262 64.7927 5.18262H67.2622V6.24564Z" fill="#C75EEB"/>
<path fill-rule="evenodd" clip-rule="evenodd" d="M74.0005 16.2628V17.3258H71.5309C70.48 17.3258 69.7401 17.1095 69.3159 16.6814C68.8918 16.2534 68.6797 15.5196 68.6797 14.4801V2.90918H69.8202V5.18574H73.812V6.24876H69.8202V14.4801C69.8202 15.1998 69.9286 15.6796 70.1454 15.91C70.3622 16.1452 70.824 16.2628 71.5309 16.2628H74.0005Z" fill="#61E061"/>
</svg>
