<svg width="139" height="33" viewBox="0 0 139 33" fill="none" xmlns="http://www.w3.org/2000/svg">
<mask id="mask0_2029_11" style="mask-type:luminance" maskUnits="userSpaceOnUse" x="0" y="0" width="69" height="33">
<path d="M68.1794 32.139H0V0.251953H68.1794V32.139Z" fill="white"/>
</mask>
<g mask="url(#mask0_2029_11)">
<path d="M64.5447 20.213C64.5211 20.3478 64.4695 20.4761 64.3934 20.5894C64.3172 20.7026 64.2182 20.7982 64.1029 20.87C63.9007 21.0021 63.6828 21.1079 63.4544 21.185C63.0136 21.344 62.545 21.501 62.0508 21.685C61.5595 21.869 61.092 22.053 60.6501 22.184C60.1312 22.368 59.6369 22.525 59.1961 22.708C58.8423 22.8652 58.5106 23.0689 58.2096 23.314C57.9293 23.5712 57.6923 23.8728 57.5077 24.207C57.3002 24.574 57.1974 25.02 57.1974 25.572C57.1974 26.675 57.4573 27.49 57.9763 28.042C58.4942 28.566 59.4551 28.854 60.8587 28.854C62.2861 28.854 63.2726 28.566 63.7915 28.014C64.3105 27.437 64.5694 26.649 64.5694 25.598V20.213H64.5447ZM60.8577 8.68298C63.3754 8.68298 65.2199 9.18298 66.4149 10.181C67.5823 11.178 68.1794 12.439 68.1794 13.937V26.806C68.1794 27.332 68.0756 27.911 67.8937 28.514C67.7118 29.144 67.3481 29.722 66.8034 30.221C66.2578 30.746 65.5045 31.167 64.5694 31.534C63.6363 31.877 62.3898 32.06 60.8834 32.06C59.3522 32.06 58.1315 31.877 57.1974 31.534C56.2623 31.193 55.51 30.746 54.9634 30.221C54.4197 29.696 54.056 29.118 53.8731 28.514C53.6922 27.883 53.5874 27.305 53.5874 26.806V24.758C53.5874 23.654 53.8741 22.656 54.4188 21.764C54.9911 20.87 55.769 20.214 56.8069 19.846C57.3278 19.662 57.8982 19.477 58.5733 19.242C59.2218 19.005 59.8712 18.796 60.4949 18.559C61.1177 18.349 61.6366 18.139 62.1032 17.981C62.5717 17.798 62.8564 17.718 62.9612 17.666C63.065 17.613 63.2212 17.534 63.403 17.429C63.6034 17.3047 63.7868 17.1544 63.9487 16.982C64.1296 16.772 64.2581 16.536 64.3895 16.3C64.519 16.038 64.5694 15.723 64.5694 15.38V14.567C64.5694 14.277 64.519 13.988 64.3895 13.674C64.2848 13.358 64.0772 13.094 63.7915 12.832C63.5068 12.57 63.1164 12.36 62.6488 12.202C62.1833 12.045 61.5842 11.967 60.8587 11.967C59.4294 11.967 58.4695 12.255 57.9496 12.859C57.5021 13.3892 57.2383 14.0529 57.1984 14.749C57.1984 14.909 57.0669 15.013 56.9117 15.013H53.796C53.7202 15.0127 53.6476 14.9822 53.5939 14.9281C53.5403 14.874 53.5099 14.8006 53.5093 14.724V13.962C53.5093 13.228 53.6398 12.544 53.9265 11.914C54.1855 11.284 54.6283 10.706 55.251 10.234C55.8471 9.75998 56.6003 9.36598 57.5344 9.10398C58.4695 8.84098 59.5608 8.68198 60.8587 8.68198L60.8577 8.68298ZM11.0354 20.213C11.0113 20.3477 10.9595 20.4757 10.8834 20.5889C10.8073 20.7021 10.7085 20.7978 10.5935 20.87C10.3907 21.0023 10.1722 21.1082 9.94311 21.185C9.50126 21.344 9.0347 21.501 8.54145 21.685C8.04721 21.869 7.58065 22.053 7.13979 22.184C6.61985 22.368 6.12659 22.525 5.68672 22.708C5.3324 22.8647 5.00031 23.0685 4.69923 23.314C4.41952 23.5714 4.18285 23.873 3.9984 24.207C3.79082 24.574 3.68604 25.02 3.68604 25.572C3.68604 26.675 3.94601 27.49 4.46694 28.042C4.9849 28.566 5.9457 28.854 7.34638 28.854C8.77572 28.854 9.76222 28.566 10.2822 28.014C10.8011 27.437 11.0601 26.649 11.0601 25.598V20.213H11.0354ZM7.34638 8.68298C9.86601 8.68298 11.7085 9.18298 12.9026 10.181C14.072 11.178 14.669 12.439 14.669 13.937V26.806C14.669 27.332 14.5652 27.911 14.3834 28.514C14.2025 29.144 13.8377 29.722 13.2941 30.221C12.7484 30.746 11.9952 31.167 11.0601 31.534C10.125 31.877 8.8805 32.06 7.37406 32.06C5.84092 32.06 4.62114 31.877 3.68604 31.534C2.75193 31.193 1.99969 30.746 1.45405 30.221C0.908412 29.696 0.544652 29.118 0.36376 28.514C0.18188 27.883 0.0780899 27.305 0.0780899 26.806V24.758C0.0699263 23.7007 0.3578 22.6627 0.908412 21.764C1.47877 20.87 2.25966 20.214 3.29757 19.846C3.81652 19.662 4.38687 19.477 5.06299 19.242C5.71143 19.005 6.36086 18.796 6.98459 18.559C7.60734 18.349 8.12728 18.139 8.59384 17.981C9.06139 17.798 9.34706 17.718 9.45085 17.666C9.55464 17.613 9.70983 17.534 9.8927 17.429C10.0926 17.3049 10.2754 17.1546 10.4364 16.982C10.6192 16.772 10.7477 16.536 10.8782 16.3C11.0087 16.038 11.0601 15.723 11.0601 15.38V14.567C11.0601 14.277 11.0087 13.988 10.8782 13.674C10.7754 13.358 10.5668 13.094 10.2822 12.832C9.9955 12.57 9.60604 12.36 9.13948 12.202C8.67193 12.045 8.0739 11.967 7.34638 11.967C5.92 11.967 4.9592 12.255 4.44025 12.859C3.99269 13.3894 3.72795 14.0528 3.68604 14.749C3.68604 14.909 3.55754 15.013 3.40136 15.013H0.284682C0.209329 15.0119 0.137366 14.9811 0.0841711 14.9271C0.030976 14.8731 0.00076723 14.8002 0 14.724L0 13.962C0 13.228 0.130479 12.544 0.415161 11.914C0.675131 11.284 1.11698 10.706 1.73873 10.234C2.33676 9.75998 3.08999 9.36598 4.02509 9.10398C4.9335 8.84098 6.04949 8.68298 7.34638 8.68298ZM49.7976 8.68298H51.8734C52.0563 8.68298 52.1868 8.86598 52.1334 9.05098L51.4326 11.782C51.4069 11.914 51.2784 11.992 51.1736 11.992H49.7195C48.9406 11.992 48.3179 12.097 47.8246 12.307C47.358 12.517 46.9666 12.754 46.7076 13.043C46.4768 13.2879 46.3074 13.5852 46.2134 13.91C46.1444 14.1937 46.1102 14.4848 46.1116 14.777V31.85C46.1105 31.9265 46.08 31.9995 46.0264 32.0535C45.9728 32.1075 45.9005 32.1382 45.8249 32.139H42.7102C42.6343 32.1385 42.5617 32.1077 42.5081 32.0535C42.4544 31.9992 42.4241 31.9257 42.4236 31.849V14.042C42.4236 13.727 42.4759 13.254 42.6054 12.65C42.7102 12.046 43.0206 11.468 43.5148 10.863C44.0071 10.286 44.7346 9.76098 45.7221 9.34098C46.6819 8.89398 48.0589 8.68298 49.7976 8.68298ZM39.2832 25.993V26.78C39.2832 27.121 39.2308 27.595 39.1013 28.199C38.9965 28.776 38.6851 29.381 38.1919 29.959C37.6976 30.536 36.9721 31.061 35.9846 31.482C34.9991 31.902 33.6478 32.112 31.9091 32.112C30.1694 32.112 28.8201 31.902 27.8326 31.482C26.8461 31.062 26.1196 30.562 25.6253 29.959C25.1311 29.381 24.8207 28.776 24.7179 28.173C24.6131 27.568 24.535 27.121 24.535 26.78V8.97198C24.535 8.81398 24.6655 8.68198 24.8207 8.68198H27.9107C28.0669 8.68198 28.1964 8.81398 28.1964 8.97198V25.65C28.1964 26.203 28.2735 26.596 28.3516 26.912C28.4306 27.227 28.5858 27.542 28.8201 27.805C29.0534 28.093 29.4162 28.329 29.9094 28.514C30.377 28.698 31.0264 28.803 31.831 28.803C32.6613 28.803 33.3365 28.698 33.8297 28.513C34.324 28.329 34.6877 28.093 34.9467 27.83C35.2067 27.568 35.3885 27.28 35.4656 26.965C35.5428 26.649 35.6485 26.386 35.6485 25.625V8.97098C35.6485 8.81298 35.777 8.68098 35.9332 8.68098H39.0222C39.1784 8.68098 39.3089 8.81298 39.3089 8.97098V25.992L39.2832 25.993ZM18.0437 0.250977H21.1337C21.2899 0.250977 21.4194 0.382977 21.4194 0.540977V31.823C21.4194 31.98 21.2899 32.113 21.1337 32.113H18.0437C17.968 32.1122 17.8956 32.0814 17.8422 32.0271C17.7888 31.9729 17.7585 31.8996 17.758 31.823V0.539977C17.758 0.382977 17.8875 0.250977 18.0437 0.250977Z" fill="#3A4854"/>
</g>
<path d="M82.8691 14.717V14.367C82.8691 13.007 82.6695 12.107 82.2691 11.665C81.8678 11.225 81.0078 11.005 79.6872 11.005H76.8582C75.5396 11.005 74.6796 11.225 74.2783 11.665C73.8779 12.106 73.6763 13.007 73.6763 14.367V16.156C73.6763 17.513 73.8779 18.402 74.2783 18.819C74.6796 19.237 75.5396 19.445 76.8582 19.445H79.6872C81.6444 19.445 83.0164 19.839 83.8062 20.626C84.595 21.413 84.9904 22.783 84.9904 24.738V26.527C84.9904 28.483 84.595 29.867 83.8062 30.675C83.0154 31.487 81.6444 31.892 79.6872 31.892H76.8582C74.903 31.892 73.529 31.487 72.7402 30.675C71.9504 29.866 71.555 28.483 71.555 26.527V26.177H73.6763V26.527C73.6763 27.887 73.8779 28.787 74.2783 29.227C74.6796 29.669 75.5396 29.89 76.8582 29.89H79.6872C81.0078 29.89 81.8678 29.67 82.2691 29.228C82.6695 28.786 82.8691 27.886 82.8691 26.527V24.738C82.8691 23.381 82.6695 22.492 82.2691 22.074C81.8678 21.657 81.0078 21.448 79.6872 21.448H76.8582C74.903 21.448 73.529 21.055 72.7402 20.268C71.9504 19.481 71.555 18.11 71.555 16.156V14.366C71.555 12.412 71.9504 11.029 72.7412 10.218C73.529 9.40695 74.903 9.00195 76.8582 9.00195H79.6872C81.6444 9.00195 83.0164 9.40695 83.8062 10.218C84.595 11.028 84.9904 12.412 84.9904 14.367V14.717H82.8691Z" fill="#F6543B"/>
<path d="M97.5609 29.89V31.892H92.9645C91.0093 31.892 89.6373 31.487 88.8475 30.675C88.0567 29.866 87.6613 28.483 87.6613 26.527V4.70996H89.7836V9.00296H97.208V11.005H89.7836V26.528C89.7836 27.888 89.9832 28.788 90.3846 29.228C90.7859 29.67 91.6459 29.891 92.9645 29.891L97.5609 29.89Z" fill="#FAC900"/>
<path d="M110.524 21.448H104.514C103.193 21.448 102.335 21.656 101.934 22.074C101.533 22.492 101.332 23.381 101.332 24.738V26.528C101.332 27.887 101.533 28.787 101.934 29.228C102.335 29.669 103.193 29.89 104.514 29.89H107.341C108.663 29.89 109.523 29.67 109.923 29.228C110.325 28.787 110.524 27.887 110.524 26.528V21.448ZM111.463 10.218C112.251 11.028 112.646 12.411 112.646 14.368V26.528C112.646 28.482 112.251 29.865 111.462 30.675C110.671 31.487 109.298 31.892 107.342 31.892H104.513C102.559 31.892 101.185 31.487 100.396 30.675C99.6051 29.865 99.2097 28.482 99.2097 26.527V24.738C99.2097 22.783 99.6051 21.413 100.396 20.626C101.185 19.839 102.559 19.446 104.513 19.446H110.523V14.367C110.523 13.007 110.325 12.107 109.923 11.665C109.523 11.225 108.663 11.005 107.342 11.005H104.513C103.193 11.005 102.335 11.225 101.933 11.665C101.533 12.107 101.332 13.008 101.332 14.367V14.717H99.2097V14.367C99.2097 12.411 99.6051 11.028 100.396 10.218C101.185 9.40795 102.559 9.00195 104.513 9.00195H107.342C109.299 9.00195 110.673 9.40695 111.463 10.218Z" fill="#4EBFE9"/>
<path d="M125.122 11.004H120.526C119.208 11.004 118.348 11.225 117.946 11.665C117.546 12.107 117.344 13.008 117.344 14.367V31.892H115.222V14.367C115.222 12.411 115.617 11.027 116.408 10.218C117.199 9.40795 118.571 9.00195 120.526 9.00195H125.123L125.122 11.004Z" fill="#C75EEB"/>
<mask id="mask1_2029_11" style="mask-type:luminance" maskUnits="userSpaceOnUse" x="127" y="4" width="11" height="28">
<path d="M137.662 31.893V4.70996H127.762V31.893H137.662Z" fill="white"/>
</mask>
<g mask="url(#mask1_2029_11)">
<path d="M137.663 29.89V31.893H133.066C131.109 31.893 129.737 31.488 128.947 30.676C128.156 29.866 127.762 28.484 127.762 26.528V4.70996H129.883V9.00196H137.309V11.006H129.883V26.529C129.883 27.888 130.084 28.788 130.486 29.229C130.886 29.671 131.745 29.891 133.066 29.891L137.663 29.89Z" fill="#61E061"/>
</g>
</svg>
